<?xml version="1.0" encoding="UTF-8" standalone="no"?>
<!-- Created with Inkscape (http://www.inkscape.org/) -->

<svg
   xmlns:dc="http://purl.org/dc/elements/1.1/"
   xmlns:cc="http://creativecommons.org/ns#"
   xmlns:rdf="http://www.w3.org/1999/02/22-rdf-syntax-ns#"
   xmlns:svg="http://www.w3.org/2000/svg"
   xmlns="http://www.w3.org/2000/svg"
   xmlns:sodipodi="http://sodipodi.sourceforge.net/DTD/sodipodi-0.dtd"
   xmlns:inkscape="http://www.inkscape.org/namespaces/inkscape"
   width="640pt"
   height="480pt"
   viewBox="0 0 225.77778 169.33334"
   version="1.1"
   id="svg1351"
   inkscape:version="0.92.2 (5c3e80d, 2017-08-06)"
   sodipodi:docname="tt.svg">
  <defs
     id="defs1345" />
  <sodipodi:namedview
     id="base"
     pagecolor="#ffffff"
     bordercolor="#666666"
     borderopacity="1.0"
     inkscape:pageopacity="0.0"
     inkscape:pageshadow="2"
     inkscape:zoom="0.98994949"
     inkscape:cx="249.79862"
     inkscape:cy="396.32045"
     inkscape:document-units="mm"
     inkscape:current-layer="layer1"
     showgrid="false"
     units="pt"
     inkscape:window-width="1920"
     inkscape:window-height="1018"
     inkscape:window-x="-8"
     inkscape:window-y="-8"
     inkscape:window-maximized="1" />
  <metadata
     id="metadata1348">
    <rdf:RDF>
      <cc:Work
         rdf:about="">
        <dc:format>image/svg+xml</dc:format>
        <dc:type
           rdf:resource="http://purl.org/dc/dcmitype/StillImage" />
        <dc:title></dc:title>
      </cc:Work>
    </rdf:RDF>
  </metadata>
  <g
     inkscape:label="圖層 1"
     inkscape:groupmode="layer"
     id="layer1"
     transform="translate(0,-127.66664)">
    <path
       style="display:inline;fill:#000000;fill-opacity:0.25098039;stroke:#ffffff;stroke-width:0.26458332;stroke-linecap:round;stroke-linejoin:round;stroke-miterlimit:4;stroke-dasharray:none;stroke-opacity:1"
       d="m 177.28589,159.69194 c 10.4918,0 82.01234,33.09443 82.01234,33.09443 0,0 -71.34356,33.0514 -82.01234,33.0514 -10.66877,0 -13.22917,-16.27563 -13.22917,-33.07291 0,-16.79729 2.73737,-33.07292 13.22917,-33.07292 z"
       id="vsi-window"
       inkscape:connector-curvature="0"
       sodipodi:nodetypes="zczzz" />
    <g
       id="vsi-unit-text"
       style="display:inline;fill:#ffffff;stroke:none"
       transform="matrix(0.26458333,0,0,0.26458333,19.05656,134.31346)">
      <path
         inkscape:connector-curvature="0"
         id="path5115"
         d="m 603.16431,337.9502 2.28271,-8.14258 h 0.77344 l -2.27734,8.14258 h -0.77881"
         style="fill:#ffffff;stroke:none" />
      <path
         inkscape:connector-curvature="0"
         id="path5117"
         d="m 606.55347,336.11328 0.95605,-0.15039 c 0.0537,0.38314 0.20231,0.67676 0.4458,0.88086 0.24707,0.2041 0.59082,0.30615 1.03125,0.30615 0.44401,0 0.77344,-0.0895 0.98828,-0.26855 0.21484,-0.18262 0.32227,-0.39567 0.32227,-0.63916 0,-0.21843 -0.0949,-0.3903 -0.28467,-0.51563 -0.13249,-0.0859 -0.46192,-0.19514 -0.98828,-0.32763 -0.70899,-0.17904 -1.20134,-0.33301 -1.47705,-0.46192 -0.27214,-0.13248 -0.47982,-0.31331 -0.62305,-0.54248 -0.13965,-0.23274 -0.20947,-0.48876 -0.20947,-0.76807 0,-0.25422 0.0573,-0.48876 0.17187,-0.70361 0.11817,-0.21842 0.27751,-0.39924 0.47803,-0.54248 0.15039,-0.111 0.35449,-0.20409 0.61231,-0.2793 0.26139,-0.0788 0.54068,-0.11815 0.83789,-0.11816 0.44759,10e-6 0.83967,0.0645 1.17627,0.19336 0.34016,0.12891 0.59081,0.30437 0.75195,0.52637 0.16113,0.21843 0.27213,0.51205 0.33301,0.88086 l -0.94531,0.1289 c -0.043,-0.29361 -0.1683,-0.52278 -0.37598,-0.6875 -0.20411,-0.16471 -0.49414,-0.24706 -0.87012,-0.24707 -0.44401,1e-5 -0.76091,0.0734 -0.95068,0.22022 -0.18978,0.14681 -0.28467,0.31869 -0.28467,0.51562 0,0.12533 0.0394,0.23812 0.11816,0.33838 0.0788,0.10385 0.20231,0.18978 0.37061,0.25781 0.0967,0.0358 0.38134,0.11817 0.854,0.24707 0.68392,0.18262 1.16016,0.33301 1.42871,0.45118 0.27214,0.11458 0.48519,0.28288 0.63916,0.50488 0.15397,0.22201 0.23096,0.49772 0.23096,0.82715 0,0.32226 -0.0949,0.62663 -0.28467,0.91308 -0.1862,0.28288 -0.45654,0.5031 -0.81103,0.66065 -0.3545,0.15397 -0.75554,0.23095 -1.20313,0.23095 -0.74121,0 -1.30696,-0.15397 -1.69726,-0.46191 -0.38672,-0.30794 -0.63379,-0.76448 -0.74121,-1.36963"
         style="fill:#ffffff;stroke:none" />
      <path
         inkscape:connector-curvature="0"
         id="path5113"
         d="m 594.69409,337.81592 v -5.7041 h 0.86475 v 0.80029 c 0.17903,-0.27929 0.41715,-0.50309 0.71435,-0.67139 0.2972,-0.17187 0.63558,-0.2578 1.01514,-0.25781 0.42252,10e-6 0.76806,0.0877 1.03662,0.26318 0.27213,0.17546 0.4637,0.42074 0.57471,0.73584 0.45116,-0.66601 1.0384,-0.99901 1.76172,-0.99902 0.56574,10e-6 1.0008,0.15756 1.30517,0.47266 0.30436,0.31152 0.45654,0.79313 0.45655,1.44482 v 3.91553 h -0.96143 v -3.59326 c -10e-6,-0.38672 -0.0322,-0.66422 -0.0967,-0.83252 -0.0609,-0.17187 -0.17367,-0.30973 -0.33838,-0.41358 -0.16472,-0.10383 -0.35808,-0.15575 -0.58008,-0.15576 -0.40104,10e-6 -0.73405,0.13428 -0.99902,0.40283 -0.26498,0.26498 -0.39747,0.69109 -0.39746,1.27832 v 3.31397 h -0.9668 v -3.70606 c 0,-0.42968 -0.0788,-0.75195 -0.23633,-0.96679 -0.15755,-0.21484 -0.41536,-0.32226 -0.77343,-0.32227 -0.27214,10e-6 -0.52458,0.0716 -0.75733,0.21484 -0.22917,0.14324 -0.39567,0.35271 -0.49951,0.62842 -0.10384,0.27572 -0.15576,0.67318 -0.15576,1.19239 v 2.95947 h -0.9668"
         style="fill:#ffffff;stroke:none" />
    </g>
    <g
       style="display:inline"
       id="vsi-arrow"
       transform="matrix(0.26458333,0,0,0.26458333,16.9399,135.37179)">
      <path
         sodipodi:nodetypes="cccccc"
         inkscape:connector-curvature="0"
         id="rect4893"
         d="m 593.03211,212.93018 h 85.3661 v 7.977 h -85.3661 l -4,-3.9885 z"
         style="fill:#c8c8c8;fill-opacity:1;stroke:#111413;stroke-width:1;stroke-linejoin:round;stroke-miterlimit:4;stroke-dasharray:none;stroke-opacity:1;marker-start:none" />
      <path
         style="fill:#ffffff;fill-opacity:1;stroke:#ffffff;stroke-width:0.99999994;stroke-linejoin:round;stroke-opacity:1"
         d="m 593.85791,214.81327 h 52.5403 v 4.21046 h -52.5403 l -1.9558,-2.10505 z"
         id="path4896"
         inkscape:connector-curvature="0"
         sodipodi:nodetypes="cccccc" />
      <path
         style="fill:none;stroke:#000000;stroke-width:1;stroke-linecap:round;stroke-linejoin:miter;stroke-miterlimit:4;stroke-dasharray:none;stroke-opacity:1"
         d="M 593.97767,217 641,216.91868"
         id="path5210"
         inkscape:connector-curvature="0" />
    </g>
    <g
       style="display:inline"
       id="vsi-scale-meter"
       transform="matrix(0.26458333,0,0,0.26458333,11.64823,135.37179)">
      <path
         style="fill:none;stroke:#ffffff;stroke-width:2.5;stroke-linecap:butt;stroke-linejoin:miter;stroke-miterlimit:4;stroke-dasharray:none;stroke-opacity:1"
         d="m 607.03209,217 h -13"
         id="vsi-centerline"
         inkscape:connector-curvature="0" />
      <path
         sodipodi:type="arc"
         style="fill:none;stroke:#ffffff;stroke-width:0.39452228;stroke-linecap:square;stroke-linejoin:round;stroke-miterlimit:4;stroke-dasharray:none;stroke-opacity:1"
         id="path3868"
         sodipodi:cx="626.35254"
         sodipodi:cy="205"
         sodipodi:rx="46.352551"
         sodipodi:ry="75"
         d="m 582.79539,230.65151 a 46.352551,75 0 0 1 0,-51.30302"
         transform="matrix(6.4484046,0,0,3.9853333,-3146.0425,-599.99333)"
         sodipodi:start="2.7925268"
         sodipodi:end="3.4906585"
         sodipodi:open="true" />
      <path
         style="fill:none;stroke:#ffffff;stroke-width:1.99999976;stroke-linecap:butt;stroke-linejoin:miter;stroke-miterlimit:4;stroke-dasharray:none;stroke-opacity:1"
         d="m 611.37496,167.3539 -12.8025,-2.25741"
         id="path4652"
         inkscape:connector-curvature="0" />
      <path
         style="fill:none;stroke:#ffffff;stroke-width:1.99999976;stroke-linecap:butt;stroke-linejoin:miter;stroke-miterlimit:4;stroke-dasharray:none;stroke-opacity:1"
         d="m 599.81128,204.20205 -5.49476,-0.2399"
         id="path4654"
         inkscape:connector-curvature="0" />
      <path
         style="fill:none;stroke:#ffffff;stroke-width:1.99999976;stroke-linecap:butt;stroke-linejoin:miter;stroke-miterlimit:4;stroke-dasharray:none;stroke-opacity:1"
         d="m 602.04172,178.70357 -5.45294,-0.71787"
         id="path4658"
         inkscape:connector-curvature="0"
         inkscape:transform-center-x="-3.6818999"
         inkscape:transform-center-y="1.4016049" />
      <path
         style="fill:none;stroke:#ffffff;stroke-width:1.99999976;stroke-linecap:butt;stroke-linejoin:miter;stroke-miterlimit:4;stroke-dasharray:none;stroke-opacity:1"
         d="m 608.11978,192.08218 -12.95052,-1.13304"
         id="path4660"
         inkscape:connector-curvature="0" />
      <path
         inkscape:transform-center-y="1.7171649"
         inkscape:transform-center-x="-3.5457349"
         inkscape:connector-curvature="0"
         id="path4662"
         d="m 606.50354,153.42132 -5.36963,-1.19039"
         style="fill:none;stroke:#ffffff;stroke-width:1.99999976;stroke-linecap:butt;stroke-linejoin:miter;stroke-miterlimit:4;stroke-dasharray:none;stroke-opacity:1" />
      <path
         inkscape:connector-curvature="0"
         id="path4666"
         d="m 616.46289,142.9203 -12.55702,-3.36463"
         style="fill:none;stroke:#ffffff;stroke-width:1.99999976;stroke-linecap:butt;stroke-linejoin:miter;stroke-miterlimit:4;stroke-dasharray:none;stroke-opacity:1" />
      <path
         style="fill:none;stroke:#ffffff;stroke-width:1.99999976;stroke-linecap:butt;stroke-linejoin:miter;stroke-miterlimit:4;stroke-dasharray:none;stroke-opacity:1"
         d="m 613.11138,128.77283 -5.24545,-1.65386"
         id="path4668"
         inkscape:connector-curvature="0"
         inkscape:transform-center-x="-3.3825849"
         inkscape:transform-center-y="2.0196599" />
      <path
         style="fill:none;stroke:#ffffff;stroke-width:1.99999976;stroke-linecap:butt;stroke-linejoin:miter;stroke-miterlimit:4;stroke-dasharray:none;stroke-opacity:1"
         d="m 624.66996,119.36055 -12.21598,-4.44623"
         id="path4672"
         inkscape:connector-curvature="0" />
      <path
         inkscape:connector-curvature="0"
         id="path4698"
         d="m 610.97895,266.79024 -12.8025,2.25741"
         style="fill:none;stroke:#ffffff;stroke-width:1.99999976;stroke-linecap:butt;stroke-linejoin:miter;stroke-miterlimit:4;stroke-dasharray:none;stroke-opacity:1" />
      <path
         inkscape:connector-curvature="0"
         id="path4700"
         d="m 599.41527,229.94209 -5.49476,0.2399"
         style="fill:none;stroke:#ffffff;stroke-width:1.99999976;stroke-linecap:butt;stroke-linejoin:miter;stroke-miterlimit:4;stroke-dasharray:none;stroke-opacity:1" />
      <path
         inkscape:transform-center-y="-1.4016049"
         inkscape:transform-center-x="-3.6818999"
         inkscape:connector-curvature="0"
         id="path4702"
         d="m 601.64571,255.44057 -5.45294,0.71787"
         style="fill:none;stroke:#ffffff;stroke-width:1.99999976;stroke-linecap:butt;stroke-linejoin:miter;stroke-miterlimit:4;stroke-dasharray:none;stroke-opacity:1" />
      <path
         inkscape:connector-curvature="0"
         id="path4704"
         d="M 607.72377,242.06196 594.77325,243.195"
         style="fill:none;stroke:#ffffff;stroke-width:1.99999976;stroke-linecap:butt;stroke-linejoin:miter;stroke-miterlimit:4;stroke-dasharray:none;stroke-opacity:1" />
      <path
         style="fill:none;stroke:#ffffff;stroke-width:1.99999976;stroke-linecap:butt;stroke-linejoin:miter;stroke-miterlimit:4;stroke-dasharray:none;stroke-opacity:1"
         d="m 606.10753,280.72282 -5.36963,1.19039"
         id="path4706"
         inkscape:connector-curvature="0"
         inkscape:transform-center-x="-3.5457349"
         inkscape:transform-center-y="-1.7171649" />
      <path
         style="fill:none;stroke:#ffffff;stroke-width:1.99999976;stroke-linecap:butt;stroke-linejoin:miter;stroke-miterlimit:4;stroke-dasharray:none;stroke-opacity:1"
         d="m 616.06688,291.22384 -12.55702,3.36463"
         id="path4708"
         inkscape:connector-curvature="0" />
      <path
         inkscape:transform-center-y="-2.0196599"
         inkscape:transform-center-x="-3.3825849"
         inkscape:connector-curvature="0"
         id="path4710"
         d="m 612.71537,305.37131 -5.24545,1.65386"
         style="fill:none;stroke:#ffffff;stroke-width:1.99999976;stroke-linecap:butt;stroke-linejoin:miter;stroke-miterlimit:4;stroke-dasharray:none;stroke-opacity:1" />
      <path
         inkscape:connector-curvature="0"
         id="path4712"
         d="m 624.27395,314.78359 -12.21598,4.44623"
         style="fill:none;stroke:#ffffff;stroke-width:1.99999976;stroke-linecap:butt;stroke-linejoin:miter;stroke-miterlimit:4;stroke-dasharray:none;stroke-opacity:1" />
      <g
         id="vsi-text"
         transform="translate(18)">
        <g
           transform="rotate(20)"
           style="font-style:normal;font-variant:normal;font-weight:normal;font-stretch:normal;font-size:14px;line-height:125%;font-family:Arial;-inkscape-font-specification:Arial;letter-spacing:0px;word-spacing:0px;fill:#ffffff;fill-opacity:1;stroke:none"
           id="text5083">
          <path
             d="m 590.70471,-92.619102 v -2.399415 h -4.34765 v -1.127929 l 4.57324,-6.494144 h 1.00488 v 6.494144 h 1.35352 v 1.127929 h -1.35352 v 2.399415 h -1.23047 m 0,-3.527344 V -100.665 l -3.13769,4.518554 h 3.13769"
             id="path5162"
             inkscape:connector-curvature="0" />
        </g>
        <g
           transform="rotate(15.000001)"
           style="font-style:normal;font-variant:normal;font-weight:normal;font-stretch:normal;font-size:14px;line-height:125%;font-family:Arial;-inkscape-font-specification:Arial;letter-spacing:0px;word-spacing:0px;fill:#ffffff;fill-opacity:1;stroke:none"
           id="text5087">
          <path
             d="m 590.11182,-15.845105 1.23047,-0.164063 c 0.14127,0.697268 0.38053,1.200848 0.71777,1.510743 0.34179,0.305339 0.75651,0.458008 1.24414,0.458007 0.57877,1e-6 1.0664,-0.200519 1.46289,-0.601562 0.40104,-0.40104 0.60156,-0.897784 0.60156,-1.490235 0,-0.5651 -0.18457,-1.029944 -0.55371,-1.394531 -0.36914,-0.369136 -0.83854,-0.553706 -1.4082,-0.553711 -0.23243,5e-6 -0.52181,0.04558 -0.86817,0.136719 l 0.13672,-1.080078 c 0.082,0.0091 0.14811,0.01368 0.19825,0.01367 0.52408,6e-6 0.99576,-0.136713 1.41503,-0.410156 0.41927,-0.273431 0.62891,-0.694981 0.62891,-1.264649 0,-0.451164 -0.15267,-0.824861 -0.45801,-1.121094 -0.30534,-0.296215 -0.69955,-0.444327 -1.18261,-0.444336 -0.47852,9e-6 -0.87729,0.1504 -1.19629,0.451172 -0.31902,0.30079 -0.52409,0.751961 -0.61524,1.353516 l -1.23047,-0.21875 c 0.15039,-0.824862 0.49219,-1.462882 1.02539,-1.914063 0.5332,-0.455719 1.19629,-0.683583 1.98926,-0.683593 0.54687,10e-6 1.05045,0.118499 1.51074,0.355468 0.46028,0.232432 0.8112,0.551442 1.05274,0.957032 0.24609,0.405607 0.36913,0.836271 0.36914,1.291992 -10e-6,0.43295 -0.11622,0.827155 -0.34863,1.182617 -0.23243,0.355475 -0.57651,0.638026 -1.03223,0.847656 0.59244,0.136724 1.05273,0.421555 1.38086,0.854492 0.32812,0.42839 0.49218,0.96615 0.49219,1.613282 -10e-6,0.875002 -0.31902,1.61784 -0.95703,2.228515 -0.63803,0.60612 -1.44467,0.90918 -2.41993,0.90918 -0.87956,0 -1.611,-0.262044 -2.19433,-0.786133 -0.57878,-0.524087 -0.90918,-1.203123 -0.99121,-2.037109"
             id="path5165"
             inkscape:connector-curvature="0" />
        </g>
        <g
           transform="rotate(10.000001)"
           style="font-style:normal;font-variant:normal;font-weight:normal;font-stretch:normal;font-size:14px;line-height:125%;font-family:Arial;-inkscape-font-specification:Arial;letter-spacing:0px;word-spacing:0px;fill:#ffffff;fill-opacity:1;stroke:none"
           id="text5099">
          <path
             d="m 594.85211,64.210739 v 1.182617 h -6.62402 c -0.009,-0.296223 0.0387,-0.581054 0.14355,-0.854492 0.16862,-0.45117 0.4375,-0.895506 0.80664,-1.333008 0.3737,-0.437497 0.91146,-0.943356 1.61328,-1.517578 1.08919,-0.893224 1.8252,-1.599604 2.20801,-2.11914 0.38281,-0.524083 0.57422,-1.018548 0.57422,-1.483399 0,-0.487622 -0.17546,-0.897778 -0.52637,-1.230469 -0.34635,-0.33723 -0.7998,-0.50585 -1.36035,-0.505859 -0.59245,9e-6 -1.06641,0.177743 -1.42187,0.533203 -0.35547,0.355477 -0.53549,0.847664 -0.54004,1.476563 l -1.26465,-0.129883 c 0.0866,-0.943351 0.41243,-1.661124 0.97754,-2.15332 0.5651,-0.496735 1.32389,-0.745108 2.27637,-0.745118 0.96158,1e-5 1.72265,0.266612 2.2832,0.799805 0.56054,0.533212 0.84081,1.194018 0.84082,1.982422 -10e-6,0.401048 -0.082,0.795254 -0.24609,1.182617 -0.16407,0.387376 -0.43751,0.795253 -0.82032,1.223633 -0.37826,0.42839 -1.00944,1.01628 -1.89355,1.763672 -0.73829,0.619794 -1.21224,1.041343 -1.42188,1.264648 -0.20963,0.218752 -0.38281,0.43978 -0.51953,0.663086 h 4.91504"
             id="path5168"
             inkscape:connector-curvature="0" />
        </g>
        <g
           transform="rotate(5.0000004)"
           style="font-style:normal;font-variant:normal;font-weight:normal;font-stretch:normal;font-size:14px;line-height:125%;font-family:Arial;-inkscape-font-specification:Arial;letter-spacing:0px;word-spacing:0px;fill:#ffffff;fill-opacity:1;stroke:none"
           id="text5103">
          <path
             d="m 583.46417,143.86147 h -1.23047 v -7.84082 c -0.29622,0.28255 -0.68587,0.56511 -1.16894,0.84765 -0.47852,0.28256 -0.90918,0.49447 -1.29199,0.63574 v -1.18945 c 0.68814,-0.32356 1.28971,-0.71549 1.80468,-1.17578 0.51497,-0.46028 0.87956,-0.90689 1.09375,-1.33984 h 0.79297 v 10.0625"
             id="path5171"
             inkscape:connector-curvature="0" />
        </g>
        <g
           style="font-style:normal;font-variant:normal;font-weight:normal;font-stretch:normal;font-size:14px;line-height:125%;font-family:Arial;-inkscape-font-specification:Arial;letter-spacing:0px;word-spacing:0px;fill:#ffffff;fill-opacity:1;stroke:none"
           id="text5137">
          <path
             d="m 562.91168,216.91772 c 0,-1.18489 0.12077,-2.13736 0.36231,-2.85742 0.24609,-0.7246 0.60839,-1.28287 1.08691,-1.6748 0.48307,-0.39192 1.08919,-0.58788 1.81836,-0.58789 0.53776,1e-5 1.00944,0.10938 1.41504,0.32812 0.40559,0.2142 0.74055,0.52638 1.00488,0.93653 0.26432,0.4056 0.47168,0.90235 0.62207,1.49023 0.15039,0.58334 0.22558,1.37175 0.22559,2.36523 -10e-6,1.17579 -0.12078,2.12598 -0.36231,2.85059 -0.24154,0.72005 -0.60384,1.27832 -1.08691,1.67481 -0.47852,0.39192 -1.08464,0.58789 -1.81836,0.58789 -0.96615,0 -1.72494,-0.34636 -2.27637,-1.03907 -0.66081,-0.83398 -0.99121,-2.19205 -0.99121,-4.07422 m 1.26465,0 c 0,1.64519 0.1914,2.74122 0.57422,3.28809 0.38737,0.54232 0.8636,0.81348 1.42871,0.81348 0.5651,0 1.03906,-0.27344 1.42188,-0.82032 0.38736,-0.54687 0.58104,-1.64062 0.58105,-3.28125 -10e-6,-1.64973 -0.19369,-2.74576 -0.58105,-3.28808 -0.38282,-0.54231 -0.86134,-0.81347 -1.43555,-0.81348 -0.56511,1e-5 -1.01628,0.23927 -1.35352,0.71778 -0.42383,0.61068 -0.63574,1.73861 -0.63574,3.38378"
             id="path5186"
             inkscape:connector-curvature="0" />
        </g>
        <g
           transform="rotate(-9.9999996)"
           style="font-style:normal;font-variant:normal;font-weight:normal;font-stretch:normal;font-size:14px;line-height:125%;font-family:Arial;-inkscape-font-specification:Arial;letter-spacing:0px;word-spacing:0px;fill:#ffffff;fill-opacity:1;stroke:none"
           id="text5129">
          <path
             d="m 519.79114,369.1806 v 1.18262 h -6.62403 c -0.009,-0.29622 0.0387,-0.58105 0.14356,-0.85449 0.16862,-0.45117 0.4375,-0.89551 0.80664,-1.33301 0.3737,-0.4375 0.91146,-0.94336 1.61328,-1.51758 1.08919,-0.89322 1.82519,-1.5996 2.20801,-2.11914 0.38281,-0.52408 0.57421,-1.01855 0.57422,-1.4834 -1e-5,-0.48762 -0.17546,-0.89778 -0.52637,-1.23047 -0.34636,-0.33723 -0.79981,-0.50585 -1.36035,-0.50586 -0.59245,10e-6 -1.06641,0.17775 -1.42188,0.53321 -0.35547,0.35547 -0.53548,0.84766 -0.54004,1.47656 l -1.26464,-0.12988 c 0.0866,-0.94335 0.41243,-1.66113 0.97754,-2.15332 0.5651,-0.49674 1.32389,-0.74511 2.27636,-0.74512 0.96159,10e-6 1.72265,0.26661 2.28321,0.7998 0.56054,0.53322 0.84081,1.19402 0.84082,1.98243 -10e-6,0.40105 -0.082,0.79525 -0.2461,1.18261 -0.16407,0.38738 -0.4375,0.79526 -0.82031,1.22364 -0.37826,0.42839 -1.00945,1.01628 -1.89356,1.76367 -0.73828,0.61979 -1.21224,1.04134 -1.42187,1.26465 -0.20964,0.21875 -0.38281,0.43978 -0.51953,0.66308 h 4.91504"
             id="path5180"
             inkscape:connector-curvature="0" />
        </g>
        <g
           transform="rotate(-4.9999998)"
           style="font-style:normal;font-variant:normal;font-weight:normal;font-stretch:normal;font-size:14px;line-height:125%;font-family:Arial;-inkscape-font-specification:Arial;letter-spacing:0px;word-spacing:0px;fill:#ffffff;fill-opacity:1;stroke:none"
           id="text5133">
          <path
             d="m 545.78973,296.81775 h -1.23046 v -7.84082 c -0.29623,0.28256 -0.68588,0.56511 -1.16895,0.84765 -0.47852,0.28256 -0.90918,0.49448 -1.29199,0.63575 v -1.18946 c 0.68815,-0.32356 1.28971,-0.71548 1.80469,-1.17578 0.51497,-0.46027 0.87955,-0.90689 1.09375,-1.33984 h 0.79296 v 10.0625"
             id="path5183"
             inkscape:connector-curvature="0" />
        </g>
        <g
           transform="rotate(-15)"
           style="font-style:normal;font-variant:normal;font-weight:normal;font-stretch:normal;font-size:14px;line-height:125%;font-family:Arial;-inkscape-font-specification:Arial;letter-spacing:0px;word-spacing:0px;fill:#ffffff;fill-opacity:1;stroke:none"
           id="text5125">
          <path
             d="m 478.23416,437.97165 1.23047,-0.16406 c 0.14127,0.69726 0.38053,1.20084 0.71777,1.51074 0.3418,0.30534 0.75651,0.45801 1.24414,0.45801 0.57878,0 1.06641,-0.20052 1.46289,-0.60157 0.40104,-0.40104 0.60156,-0.89778 0.60157,-1.49023 -10e-6,-0.5651 -0.18458,-1.02994 -0.55371,-1.39453 -0.36915,-0.36914 -0.83855,-0.55371 -1.40821,-0.55371 -0.23242,0 -0.52181,0.0456 -0.86816,0.13672 l 0.13672,-1.08008 c 0.082,0.009 0.14811,0.0137 0.19824,0.0137 0.52408,10e-6 0.99576,-0.13671 1.41504,-0.41016 0.41926,-0.27343 0.6289,-0.69498 0.62891,-1.26464 -10e-6,-0.45117 -0.15268,-0.82487 -0.45801,-1.1211 -0.30535,-0.29621 -0.69955,-0.44433 -1.18262,-0.44433 -0.47852,0 -0.87728,0.1504 -1.19629,0.45117 -0.31901,0.30079 -0.52409,0.75196 -0.61523,1.35351 l -1.23047,-0.21875 c 0.15039,-0.82486 0.49218,-1.46288 1.02539,-1.91406 0.5332,-0.45572 1.19629,-0.68358 1.98926,-0.68359 0.54687,1e-5 1.05045,0.1185 1.51074,0.35547 0.46028,0.23243 0.81119,0.55144 1.05273,0.95703 0.24609,0.4056 0.36914,0.83627 0.36914,1.29199 0,0.43295 -0.11621,0.82715 -0.34863,1.18262 -0.23243,0.35547 -0.5765,0.63802 -1.03223,0.84765 0.59245,0.13673 1.05273,0.42156 1.38086,0.85449 0.32812,0.42839 0.49218,0.96615 0.49219,1.61329 -10e-6,0.875 -0.31902,1.61784 -0.95703,2.22851 -0.63803,0.60612 -1.44467,0.90918 -2.41992,0.90918 -0.87956,0 -1.61101,-0.26204 -2.19434,-0.78613 -0.57877,-0.52409 -0.90918,-1.20312 -0.99121,-2.03711"
             id="path5177"
             inkscape:connector-curvature="0" />
        </g>
        <g
           transform="rotate(-20)"
           style="font-style:normal;font-variant:normal;font-weight:normal;font-stretch:normal;font-size:14px;line-height:125%;font-family:Arial;-inkscape-font-specification:Arial;letter-spacing:0px;word-spacing:0px;fill:#ffffff;fill-opacity:1;stroke:none"
           id="text5121">
          <path
             d="m 442.86176,508.83423 v -2.39942 h -4.34766 v -1.12793 l 4.57324,-6.49414 h 1.00488 v 6.49414 h 1.35352 v 1.12793 h -1.35352 v 2.39942 h -1.23046 m 0,-3.52735 v -4.51855 l -3.1377,4.51855 h 3.1377"
             id="path5174"
             inkscape:connector-curvature="0" />
        </g>
      </g>
    </g>
  </g>
</svg>
